<?xml version="1.0" encoding="UTF-8"?>
<svg version="1.1" xmlns="http://www.w3.org/2000/svg" width="320" height="320">
<path d="M0 0 C-0.5273402 7.85591753 -1.73207254 15.38061829 -3.4375 23.0625 C-3.65470703 24.09310547 -3.87191406 25.12371094 -4.09570312 26.18554688 C-4.31033203 27.16716797 -4.52496094 28.14878906 -4.74609375 29.16015625 C-5.03504517 30.48478882 -5.03504517 30.48478882 -5.32983398 31.83618164 C-6 34 -6 34 -8 36 C-10.49023437 36.24291992 -10.49023437 36.24291992 -13.59375 36.23046875 C-14.70621094 36.22853516 -15.81867188 36.22660156 -16.96484375 36.22460938 C-18.71474609 36.20624023 -18.71474609 36.20624023 -20.5 36.1875 C-22.24990234 36.1865332 -22.24990234 36.1865332 -24.03515625 36.18554688 C-32.7194727 36.14026365 -32.7194727 36.14026365 -35 35 C-33.68 29.72 -32.36 24.44 -31 19 C-35.07043675 18.3022844 -39.14116757 17.60729012 -43.21313477 16.91870117 C-44.59327422 16.68453168 -45.97316608 16.44889737 -47.3527832 16.21166992 C-61.87547931 13.71648821 -75.9668736 12.7635145 -90.6875 12.75 C-91.54972168 12.74866058 -92.41194336 12.74732117 -93.30029297 12.74594116 C-111.64085314 12.75210513 -129.34592089 14.49994867 -147.26953125 18.44921875 C-150 19 -150 19 -153 19 C-151.75570625 23.02043777 -150.51056003 27.04061025 -149.26464844 31.06054688 C-148.8415666 32.42603544 -148.41871135 33.79159424 -147.99609375 35.15722656 C-147.3860236 37.1284438 -146.77511916 39.09940088 -146.1640625 41.0703125 C-145.79748535 42.25383301 -145.4309082 43.43735352 -145.05322266 44.65673828 C-144.06873034 47.78182818 -143.03611833 50.891645 -142 54 C-134.08 54.33 -126.16 54.66 -118 55 C-118.66 57.97 -119.32 60.94 -120 64 C-120.34126268 70.22804382 -119.60414476 75.01119289 -118 81 C-119 82 -119 82 -122.87719727 82.11352539 C-124.60694167 82.11336621 -126.33669081 82.10766849 -128.06640625 82.09765625 C-128.97502914 82.0962413 -129.88365204 82.09482635 -130.81980896 82.09336853 C-133.73407221 82.08775193 -136.64825981 82.07519665 -139.5625 82.0625 C-141.53320202 82.05748714 -143.50390524 82.05292386 -145.47460938 82.04882812 C-150.31643559 82.03777711 -155.15820495 82.02050138 -160 82 C-164.70366723 72.35127748 -168.77374856 62.7178253 -172.125 52.5 C-172.44233597 51.543853 -172.44233597 51.543853 -172.76608276 50.56838989 C-176.51525921 39.23104516 -179.42278569 27.79307113 -181.60986328 16.05029297 C-181.90387318 14.5051771 -182.25006517 12.96985732 -182.62109375 11.44140625 C-183.2112438 7.63889305 -183.07529223 3.83990383 -183 0 C-168.20879229 -5.34640529 -153.51418587 -9.37444654 -138 -12 C-136.53892822 -12.2477417 -136.53892822 -12.2477417 -135.04833984 -12.50048828 C-90.17360758 -19.7003997 -42.64804673 -15.41549189 0 0 Z " fill="#00018E" transform="translate(253,97)"/>
<path d="M0 0 C16.83 0 33.66 0 51 0 C49.8722701 7.89410931 49.8722701 7.89410931 48.35546875 11.50390625 C48.01475342 12.31569336 47.67403809 13.12748047 47.32299805 13.96386719 C46.94828369 14.82141602 46.57356934 15.67896484 46.1875 16.5625 C45.79151611 17.47290039 45.39553223 18.38330078 44.98754883 19.32128906 C31.80912879 48.96956443 7.27180814 92.1058465 -24.19921875 105.96875 C-27.13730633 106.66142291 -29.42264964 106.26703773 -32.13671875 105.01171875 C-37.46431365 101.71102732 -42.04166732 97.43033794 -46.625 93.18359375 C-48.74195692 91.23724685 -50.90702844 89.3914322 -53.125 87.5625 C-54.07375 86.716875 -55.0225 85.87125 -56 85 C-56 84.34 -56 83.68 -56 83 C-56.66 83 -57.32 83 -58 83 C-83 56.15010571 -83 56.15010571 -83 46 C-78.75039493 45.72554714 -74.50561855 45.52741606 -70.24975586 45.39575195 C-68.80678425 45.34082916 -67.36441382 45.26604591 -65.92358398 45.17016602 C-53.98274562 44.39618446 -53.98274562 44.39618446 -49.19213867 48.27124023 C-46.90951095 51.07895595 -44.9440854 53.95094411 -43 57 C-41.98343433 58.2133981 -40.93978995 59.40534259 -39.85546875 60.55859375 C-38.06171764 62.49416412 -36.27008377 64.43169854 -34.48046875 66.37109375 C-32.35688511 68.62175798 -30.20319994 70.82761404 -28 73 C-24.04545304 71.3975651 -21.32571072 68.67102281 -18.375 65.6875 C-17.84865967 65.15624512 -17.32231934 64.62499023 -16.7800293 64.07763672 C-6.0614979 53.04409197 2.16205464 40.16971384 10 27 C6.7 27 3.4 27 0 27 C0.165 25.9275 0.33 24.855 0.5 23.75 C1.49940323 15.71194256 1.14368906 8.0058234 0 0 Z " fill="#00028E" transform="translate(188,152)"/>
<path d="M0 0 C5.84794587 4.75213412 9.22901302 10.15257208 10.79296875 17.5234375 C11.50028537 25.72831025 9.08321278 31.95335122 4.66796875 38.8359375 C-1.03173819 44.16392442 -7.79161196 47.2908947 -15.625 47.72265625 C-23.06628656 47.14851765 -30.1749295 44.03478703 -35.20703125 38.5234375 C-40.55041179 31.06260031 -41.48461138 23.51801376 -40.20703125 14.5234375 C-37.65824647 6.39108606 -33.42785668 1.88709974 -26.08203125 -2.2265625 C-17.30473055 -6.0427802 -8.0080485 -5.35759705 0 0 Z M-29.58203125 8.8359375 C-33.79701531 14.3487232 -34.7437207 19.16242434 -33.87890625 25.98828125 C-32.46892858 31.30848769 -29.04410025 34.94151698 -24.95703125 38.4609375 C-19.36634648 40.6209748 -14.21269403 41.12513633 -8.45703125 39.3984375 C-2.15216812 35.76101647 1.62416339 32.6322995 3.79296875 25.5234375 C4.49703709 19.18682243 3.44502797 14.78736237 -0.20703125 9.5234375 C-4.34956191 4.92709028 -8.98309316 2.87386555 -15.08203125 2.2109375 C-21.02495145 2.80522952 -25.50304796 4.33910714 -29.58203125 8.8359375 Z " fill="#C31822" transform="translate(176.20703125,143.4765625)"/>
<path d="M0 0 C0 0.33 0 0.66 0 1 C-1.35524008 0.9108799 -2.709229 0.80272007 -4.0625 0.6875 C-4.81660156 0.62949219 -5.57070312 0.57148437 -6.34765625 0.51171875 C-9.10263911 -0.01980224 -11.35358458 -1.0522654 -13.90014648 -2.19555664 C-18.27829646 -3.87280396 -22.91539752 -4.64267786 -27.5 -5.5625 C-28.98113281 -5.87477539 -28.98113281 -5.87477539 -30.4921875 -6.19335938 C-33.65447171 -6.84166828 -36.82257353 -7.43069227 -40 -8 C-41.02988037 -8.19489014 -42.05976074 -8.38978027 -43.12084961 -8.59057617 C-55.25162319 -10.56747548 -67.47132226 -10.26650561 -79.7277832 -10.20581055 C-83.58486457 -10.18739321 -87.44170706 -10.18530249 -91.29882812 -10.18554688 C-93.76302291 -10.18063615 -96.22721607 -10.17480978 -98.69140625 -10.16796875 C-99.83831436 -10.16685593 -100.98522247 -10.1657431 -102.16688538 -10.16459656 C-103.23917892 -10.15821671 -104.31147247 -10.15183685 -105.41625977 -10.14526367 C-106.35252701 -10.14145187 -107.28879425 -10.13764008 -108.25343323 -10.13371277 C-111.23062291 -9.98877245 -114.06409765 -9.50213005 -117 -9 C-119.33302989 -8.96237049 -121.66713319 -8.95334266 -124 -9 C-124 -8.34 -124 -7.68 -124 -7 C-124.66644531 -7.03480469 -125.33289063 -7.06960937 -126.01953125 -7.10546875 C-135.80877453 -7.39298499 -144.17543922 -5.11812836 -153 -1 C-153.33 -1.33 -153.66 -1.66 -154 -2 C-155.51469448 -2.23192865 -157.03754562 -2.41215238 -158.5625 -2.5625 C-159.38878906 -2.64628906 -160.21507812 -2.73007813 -161.06640625 -2.81640625 C-161.70449219 -2.87699219 -162.34257812 -2.93757813 -163 -3 C-163 -2.34 -163 -1.68 -163 -1 C-166.92521514 1.26912204 -170.40692173 1.39572016 -174.85546875 1.65625 C-175.91701172 1.82640625 -175.91701172 1.82640625 -177 2 C-178.5483952 5.0967904 -178.21876334 7.55447732 -178 11 C-177.53377029 12.36616149 -177.03092664 13.72015717 -176.5 15.0625 C-174.22627992 21.2111515 -174.7518845 27.53980762 -175 34 C-177.37893333 29.60999037 -178.16343343 25.17375322 -179.125 20.3125 C-179.30675781 19.45205078 -179.48851562 18.59160156 -179.67578125 17.70507812 C-180.81325727 12.03052668 -181.17586477 6.78595079 -181 1 C-166.20879229 -4.34640529 -151.51418587 -8.37444654 -136 -11 C-134.53892822 -11.2477417 -134.53892822 -11.2477417 -133.04833984 -11.50048828 C-88.94624058 -18.57643485 -42.15122493 -14.46463025 0 0 Z " fill="#0D0B6E" transform="translate(251,96)"/>
<path d="M0 0 C16.83 0 33.66 0 51 0 C50.08491538 6.40559234 48.71303794 10.77700923 46.1875 16.5625 C45.60657593 17.9096106 45.60657593 17.9096106 45.01391602 19.28393555 C40.3373574 29.86907398 34.71522916 39.94777495 29 50 C28.67 49.01 28.34 48.02 28 47 C28.95939668 45.30963442 29.96642853 43.64605826 31 42 C32.54847985 38.30085369 33.08817484 35.08403585 33.3125 31.125 C33.86458045 24.56904463 36.95906596 20.40109887 41.125 15.5 C43.61291266 12.18278312 44.67063858 8.92161619 46 5 C42.1917397 2.4611598 39.25933989 2.82227316 34.8671875 2.98828125 C34.0747464 3.01093552 33.2823053 3.03358978 32.46585083 3.05693054 C30.79299786 3.10684723 29.12028881 3.16180548 27.44775391 3.22143555 C24.87815582 3.3123883 22.30847304 3.38697575 19.73828125 3.45898438 C18.1145532 3.50945628 16.49085368 3.56085655 14.8671875 3.61328125 C13.70786209 3.64776115 13.70786209 3.64776115 12.52511597 3.68293762 C8.96396734 3.49986215 8.96396734 3.49986215 6 5 C5.78791518 7.44192101 5.62358949 9.86588578 5.5 12.3125 C5.07925681 20.50140918 5.07925681 20.50140918 4 24 C6.64 24 9.28 24 12 24 C12.33 25.98 12.66 27.96 13 30 C12.071875 30.5878125 12.071875 30.5878125 11.125 31.1875 C8.67503632 33.27717491 7.98120002 34.97463327 7 38 C6.34 38 5.68 38 5 38 C5 38.99 5 39.98 5 41 C4.34 41 3.68 41 3 41 C3 41.99 3 42.98 3 44 C2.01 44.495 2.01 44.495 1 45 C0.731875 45.886875 0.46375 46.77375 0.1875 47.6875 C-1.57351384 52.59980177 -4.07400168 56.05840082 -8.8125 58.375 C-9.534375 58.58125 -10.25625 58.7875 -11 59 C-9.43803186 55.51811269 -7.34637026 52.75000198 -5 49.75 C0.52689311 42.48865101 5.26358896 34.79184112 10 27 C6.7 27 3.4 27 0 27 C0.165 25.9275 0.33 24.855 0.5 23.75 C1.49940323 15.71194256 1.14368906 8.0058234 0 0 Z " fill="#05037C" transform="translate(188,152)"/>
<path d="M0 0 C3.27895527 2.63742054 5.39880308 5.12984243 7 9 C7.41658942 13.01972247 7.05258515 16.60619219 4.578125 19.8828125 C1.04432827 23.11952013 -2.0728538 25.10264888 -7 25 C-12.08008429 23.42342212 -15.4650302 21.76574323 -18 17 C-18.73327724 12.86320952 -18.95934595 8.92262364 -17.046875 5.08984375 C-12.46979296 -0.80532204 -6.93086641 -2.18869465 0 0 Z " fill="#B11E31" transform="translate(167,153)"/>
<path d="M0 0 C0.66 0 1.32 0 2 0 C1.4726598 7.85591753 0.26792746 15.38061829 -1.4375 23.0625 C-1.65470703 24.09310547 -1.87191406 25.12371094 -2.09570312 26.18554688 C-2.31033203 27.16716797 -2.52496094 28.14878906 -2.74609375 29.16015625 C-3.03504517 30.48478882 -3.03504517 30.48478882 -3.32983398 31.83618164 C-4 34 -4 34 -6 36 C-8.49023438 36.24291992 -8.49023438 36.24291992 -11.59375 36.23046875 C-12.70621094 36.22853516 -13.81867188 36.22660156 -14.96484375 36.22460938 C-16.71474609 36.20624023 -16.71474609 36.20624023 -18.5 36.1875 C-20.24990234 36.1865332 -20.24990234 36.1865332 -22.03515625 36.18554688 C-30.7194727 36.14026365 -30.7194727 36.14026365 -33 35 C-31.68 29.72 -30.36 24.44 -29 19 C-33.07043675 18.3022844 -37.14116757 17.60729012 -41.21313477 16.91870117 C-42.59327422 16.68453168 -43.97316608 16.44889737 -45.3527832 16.21166992 C-59.87547931 13.71648821 -73.9668736 12.7635145 -88.6875 12.75 C-89.54972168 12.74866058 -90.41194336 12.74732117 -91.30029297 12.74594116 C-109.64085314 12.75210513 -127.34592089 14.49994867 -145.26953125 18.44921875 C-148 19 -148 19 -151 19 C-151 18.34 -151 17.68 -151 17 C-142.47765242 14.602146 -133.97114457 13.15700655 -125.19189453 12.11962891 C-123.13331061 11.87598361 -121.07644872 11.62057972 -119.01953125 11.36328125 C-106.61742509 9.83655737 -94.25264204 8.81976005 -81.75 8.875 C-80.82832031 8.87113281 -79.90664062 8.86726563 -78.95703125 8.86328125 C-78.07917969 8.86457031 -77.20132813 8.86585937 -76.296875 8.8671875 C-75.12656738 8.86887939 -75.12656738 8.86887939 -73.93261719 8.87060547 C-72 9 -72 9 -70 10 C-67.29157737 10.32595896 -64.58964919 10.61282625 -61.875 10.875 C-55.65443726 11.50887103 -49.56472612 12.37997004 -43.4375 13.625 C-37.80254251 14.7452363 -32.73077733 15.30700593 -27 15 C-26.00010451 21.59390542 -25.99074836 26.61767125 -28 33 C-27.195625 32.814375 -26.39125 32.62875 -25.5625 32.4375 C-24.716875 32.293125 -23.87125 32.14875 -23 32 C-22.67 32.33 -22.34 32.66 -22 33 C-19.87880076 33.15193163 -17.75144685 33.22183514 -15.625 33.25 C-14.46226562 33.27578125 -13.29953125 33.3015625 -12.1015625 33.328125 C-9.1060794 33.21342673 -9.1060794 33.21342673 -7.15234375 31.984375 C-5.34182023 28.86659212 -5.23527131 25.5231048 -4.9375 22 C-4.25269923 14.37904884 -4.25269923 14.37904884 -2 11 C-1.55888435 9.11845117 -1.1890733 7.21937362 -0.875 5.3125 C-0.62363281 3.82169922 -0.62363281 3.82169922 -0.3671875 2.30078125 C-0.24601563 1.54152344 -0.12484375 0.78226562 0 0 Z " fill="#0D0D5F" transform="translate(251,97)"/>
<path d="M0 0 C2.00186471 3.00279706 2.8406234 5.33648021 3.875 8.76953125 C4.22046875 9.90583984 4.5659375 11.04214844 4.921875 12.21289062 C5.45554687 13.99469727 5.45554687 13.99469727 6 15.8125 C6.70777381 18.15251306 7.41608956 20.49236228 8.125 22.83203125 C8.43695313 23.87077393 8.74890625 24.9095166 9.0703125 25.97973633 C10.00036932 29.00119981 11.00028768 32.00086303 12 35 C19.92 35.33 27.84 35.66 36 36 C35.34 38.97 34.68 41.94 34 45 C33.65873732 51.22804382 34.39585524 56.01119289 36 62 C35 63 35 63 31.12280273 63.11352539 C29.39305833 63.11336621 27.66330919 63.10766849 25.93359375 63.09765625 C25.02497086 63.0962413 24.11634796 63.09482635 23.18019104 63.09336853 C20.26592779 63.08775193 17.35174019 63.07519665 14.4375 63.0625 C12.46679798 63.05748714 10.49609476 63.05292386 8.52539062 63.04882812 C3.68356441 63.03777711 -1.15820495 63.02050138 -6 63 C-7.11676647 60.63121591 -8.23096098 58.26127692 -9.34375 55.890625 C-9.65666992 55.22756348 -9.96958984 54.56450195 -10.29199219 53.88134766 C-17.50058564 38.50175692 -17.50058564 38.50175692 -16 34 C-16 34.66 -16 35.32 -16 36 C-14.35 36.66 -12.7 37.32 -11 38 C-11.0825 38.78375 -11.165 39.5675 -11.25 40.375 C-10.7772443 47.22995767 -7.60141835 53.23773065 -4 59 C-4 59.66 -4 60.32 -4 61 C8.21 61 20.42 61 33 61 C32.67 59.35 32.34 57.7 32 56 C31.92463789 54.52630618 31.89172806 53.04980007 31.90234375 51.57421875 C31.90484131 50.85580811 31.90733887 50.13739746 31.90991211 49.3972168 C31.91901611 48.50301025 31.92812012 47.60880371 31.9375 46.6875 C31.958125 43.820625 31.97875 40.95375 32 38 C21.11 37.505 21.11 37.505 10 37 C3.55319149 24.10638298 3.55319149 24.10638298 4 18 C3.34 18 2.68 18 2 18 C-2.17647059 5.47058824 -2.17647059 5.47058824 -1 1 C-0.67 0.67 -0.34 0.34 0 0 Z " fill="#0A0961" transform="translate(99,116)"/>
<path d="M0 0 C10.23 0 20.46 0 31 0 C31.33 0.66 31.66 1.32 32 2 C23.42 2 14.84 2 6 2 C6.66 4.97 7.32 7.94 8 11 C8.99 11.33 9.98 11.66 11 12 C13.32265612 14.58072903 14 15.45176068 14 19 C14.8971875 19.0928125 14.8971875 19.0928125 15.8125 19.1875 C18.92266847 20.34270543 19.60417708 22.06877187 21 25 C21 25.99 21 26.98 21 28 C22.66279327 29.0064275 24.32983484 30.00585407 26 31 C26.68268138 32.32520503 27.3507041 33.65812182 28 35 C30.0335948 36.26804566 30.0335948 36.26804566 32 37 C32 38.32 32 39.64 32 41 C32.99 41.33 33.98 41.66 35 42 C35.33 42.66 35.66 43.32 36 44 C38.02463255 44.65213292 38.02463255 44.65213292 40 45 C40 45.99 40 46.98 40 48 C41.0725 48.226875 42.145 48.45375 43.25 48.6875 C47.38996934 50.13648927 48.71040488 51.33664781 51 55 C51 55.66 51 56.32 51 57 C53.31 57.66 55.62 58.32 58 59 C58 59.33 58 59.66 58 60 C47.32916834 59.12512436 39.89969298 50.96384099 32.25 44.0625 C31.72446533 43.59021973 31.19893066 43.11793945 30.6574707 42.63134766 C29.39668475 41.46432168 28.19240891 40.23680712 27 39 C27 38.34 27 37.68 27 37 C26.34 37 25.68 37 25 37 C0 10.15010571 0 10.15010571 0 0 Z " fill="#080766" transform="translate(105,198)"/>
<path d="M0 0 C3.47901564 2.68833027 4.10668406 5.80828675 5 10 C5.80365793 18.17052229 3.26786925 24.46479205 -1.125 31.3125 C-7.12076519 36.91723703 -13.66176835 39.42572844 -21.7734375 40.15234375 C-24.28771449 39.98031427 -25.8424974 39.26593189 -28 38 C-27.25234375 37.95101562 -26.5046875 37.90203125 -25.734375 37.8515625 C-24.74953125 37.77679688 -23.7646875 37.70203125 -22.75 37.625 C-21.28820312 37.52058594 -21.28820312 37.52058594 -19.796875 37.4140625 C-17.10366811 37.01534751 -15.33036721 36.36492937 -13 35 C-14.16277032 33.60843516 -14.16277032 33.60843516 -17.37890625 33.90234375 C-18.77347077 33.90901631 -20.16801743 33.92097468 -21.5625 33.9375 C-22.27341797 33.94201172 -22.98433594 33.94652344 -23.71679688 33.95117188 C-25.47790013 33.96299136 -27.23896036 33.98092737 -29 34 C-29 33.34 -29 32.68 -29 32 C-29.99 31.67 -30.98 31.34 -32 31 C-31.34 30.67 -30.68 30.34 -30 30 C-29.175 30.33 -28.35 30.66 -27.5 31 C-21.99148673 32.57386093 -16.87081122 32.44266736 -11.68359375 29.8359375 C-7.02418398 26.62669394 -4.53654657 23.5699813 -3 18 C-2.5604789 13.57097972 -2.9199254 9.32029839 -4 5 C-3.01 5.33 -2.02 5.66 -1 6 C-0.94607603 8.77109307 -0.90636545 11.54113818 -0.875 14.3125 C-0.85824219 15.09818359 -0.84148437 15.88386719 -0.82421875 16.69335938 C-0.81777344 17.45068359 -0.81132812 18.20800781 -0.8046875 18.98828125 C-0.79421387 19.68477783 -0.78374023 20.38127441 -0.77294922 21.09887695 C-1 23 -1 23 -3 26 C0.06433705 23.61259736 0.93784975 22.50005294 1.42578125 18.57421875 C1.38839844 17.29160156 1.35101563 16.00898438 1.3125 14.6875 C1.28800781 13.41261719 1.26351562 12.13773438 1.23828125 10.82421875 C1.00936008 7.15022163 0.57777946 3.63108556 0 0 Z " fill="#B51C25" transform="translate(182,151)"/>
<path d="M0 0 C16.83 0 33.66 0 51 0 C50.67 2.31 50.34 4.62 50 7 C49.67 7 49.34 7 49 7 C49 5.02 49 3.04 49 1 C34.15 1 19.3 1 4 1 C4 6.28 4 11.56 4 17 C3.73259179 19.6740821 3.441809 22.34914598 3 25 C4.7015625 24.9690625 4.7015625 24.9690625 6.4375 24.9375 C10 25 10 25 11 26 C11.1875 28.4375 11.1875 28.4375 11 31 C10.34 31.66 9.68 32.32 9 33 C8.29289322 34.64991582 7.62056011 36.31562256 7 38 C6.34 38 5.68 38 5 38 C5 38.99 5 39.98 5 41 C4.34 41 3.68 41 3 41 C3 41.99 3 42.98 3 44 C2.01 44.495 2.01 44.495 1 45 C0.731875 45.886875 0.46375 46.77375 0.1875 47.6875 C-1.57351384 52.59980177 -4.07400168 56.05840082 -8.8125 58.375 C-9.534375 58.58125 -10.25625 58.7875 -11 59 C-9.43803186 55.51811269 -7.34637026 52.75000198 -5 49.75 C0.52689311 42.48865101 5.26358896 34.79184112 10 27 C6.7 27 3.4 27 0 27 C0.165 25.9275 0.33 24.855 0.5 23.75 C1.49940323 15.71194256 1.14368906 8.0058234 0 0 Z " fill="#0E0A5B" transform="translate(188,152)"/>
<path d="M0 0 C0 0.33 0 0.66 0 1 C-8.415 1.495 -8.415 1.495 -17 2 C-17 2.33 -17 2.66 -17 3 C-15.576875 2.938125 -15.576875 2.938125 -14.125 2.875 C-11 3 -11 3 -9 5 C-9.72445312 5.15855469 -10.44890625 5.31710938 -11.1953125 5.48046875 C-17.43930694 6.98735274 -21.44589216 8.44589216 -26 13 C-26.66 13.66 -27.32 14.32 -28 15 C-28.33 14.01 -28.66 13.02 -29 12 C-32.14719239 13.61436414 -32.14719239 13.61436414 -32.52416992 16.06298828 C-32.59224854 16.89040527 -32.66032715 17.71782227 -32.73046875 18.5703125 C-32.81103516 19.46621094 -32.89160156 20.36210937 -32.97460938 21.28515625 C-33.04486328 22.22230469 -33.11511719 23.15945312 -33.1875 24.125 C-33.26935547 25.06988281 -33.35121094 26.01476562 -33.43554688 26.98828125 C-33.63615421 29.32476674 -33.8237477 31.66157176 -34 34 C-37.4195008 28.87074881 -36.61939703 22.97686202 -36 17 C-33.50821821 8.87229975 -29.18842381 4.34551733 -21.875 0.25 C-14.38072971 -3.00837839 -7.61382318 -2.53794106 0 0 Z " fill="#BC1A24" transform="translate(172,141)"/>
<path d="M0 0 C3 1.5 3 1.5 5 4 C5.99096836 8.53389948 5.45721741 12.74220886 3.5 16.9375 C0.68748344 20.38283278 -0.79804208 21.0527273 -5 21.90625 C-7.25220143 22.01182194 -8.88970464 21.79873545 -11 21 C-11.70211894 19.34795544 -12.36971413 17.68076231 -13 16 C-13.99 15.67 -14.98 15.34 -16 15 C-15.67 12.69 -15.34 10.38 -15 8 C-14.773125 8.5775 -14.54625 9.155 -14.3125 9.75 C-12.61295453 12.66350652 -10.82092802 14.16311664 -8 16 C-5.41417872 16.58402133 -5.41417872 16.58402133 -3 16 C-1.31201173 14.56249809 -1.31201173 14.56249809 0 13 C0.66 13 1.32 13 2 13 C2 10.03 2 7.06 2 4 C-1.26881973 3.18279507 -3.46999069 2.88926457 -6.75 2.9375 C-7.94882813 2.95103516 -7.94882813 2.95103516 -9.171875 2.96484375 C-10.07679688 2.98224609 -10.07679688 2.98224609 -11 3 C-11 2.01 -11 1.02 -11 0 C-7.12895578 -1.29034807 -3.89390503 -0.94696134 0 0 Z " fill="#C9131E" transform="translate(167,156)"/>
<path d="M0 0 C3.47914941 -0.02887814 6.95826831 -0.04675687 10.4375 -0.0625 C11.92733398 -0.07506836 11.92733398 -0.07506836 13.44726562 -0.08789062 C14.39150391 -0.09111328 15.33574219 -0.09433594 16.30859375 -0.09765625 C17.62041626 -0.10551147 17.62041626 -0.10551147 18.95874023 -0.11352539 C21 0 21 0 22 1 C22.08713831 2.70772358 22.10700007 4.41898649 22.09765625 6.12890625 C22.09515869 7.06033447 22.09266113 7.9917627 22.09008789 8.95141602 C22.08098389 10.14307373 22.07187988 11.33473145 22.0625 12.5625 C22.041875 16.336875 22.02125 20.11125 22 24 C9.79 24 -2.42 24 -15 24 C-15.33 22.68 -15.66 21.36 -16 20 C-15.47889648 20.32597168 -14.95779297 20.65194336 -14.42089844 20.98779297 C-11.25177611 22.31284149 -8.69698645 22.22541216 -5.265625 22.1953125 C-3.32236328 22.18564453 -3.32236328 22.18564453 -1.33984375 22.17578125 C0.02344019 22.15907193 1.38672144 22.14214206 2.75 22.125 C4.12889985 22.1149634 5.50780665 22.10583873 6.88671875 22.09765625 C10.25798882 22.07408093 13.62890636 22.0411727 17 22 C17.90783007 17.81267308 18.10261921 13.9802551 18.0625 9.6875 C18.05347656 8.43324219 18.04445312 7.17898437 18.03515625 5.88671875 C18.02355469 4.93410156 18.01195312 3.98148438 18 3 C16.86820313 2.95101562 15.73640625 2.90203125 14.5703125 2.8515625 C13.08851661 2.77653486 11.606747 2.70098703 10.125 2.625 C9.37863281 2.5940625 8.63226563 2.563125 7.86328125 2.53125 C2.2265625 2.2265625 2.2265625 2.2265625 0 0 Z " fill="#050379" transform="translate(110,153)"/>
<path d="M0 0 C-2.70879335 1.35439668 -5.00933268 1.06501451 -8 1 C-8 1.66 -8 2.32 -8 3 C-10.64 3.33 -13.28 3.66 -16 4 C-16 4.66 -16 5.32 -16 6 C-19.92521514 8.26912204 -23.40692173 8.39572016 -27.85546875 8.65625 C-28.91701172 8.82640625 -28.91701172 8.82640625 -30 9 C-31.5483952 12.0967904 -31.21876334 14.55447732 -31 18 C-30.53377029 19.36616149 -30.03092664 20.72015717 -29.5 22.0625 C-27.22627992 28.2111515 -27.7518845 34.53980762 -28 41 C-30.37893333 36.60999037 -31.16343343 32.17375322 -32.125 27.3125 C-32.30675781 26.45205078 -32.48851563 25.59160156 -32.67578125 24.70507812 C-33.81325727 19.03052668 -34.17586477 13.78595079 -34 8 C-30.69009373 6.86727048 -27.37664098 5.74527301 -24.0625 4.625 C-23.13630859 4.30789062 -22.21011719 3.99078125 -21.25585938 3.6640625 C-5.3897766 -1.68030222 -5.3897766 -1.68030222 0 0 Z " fill="#0F0D60" transform="translate(104,89)"/>
<path d="M0 0 C0.66 0 1.32 0 2 0 C-4.89432095 15.13979023 -23.44372527 33.01120276 -38 41 C-38.99 40.67 -39.98 40.34 -41 40 C-40.195625 39.566875 -39.39125 39.13375 -38.5625 38.6875 C-35.72153646 37.19525998 -35.72153646 37.19525998 -35 34 C-34.34 34 -33.68 34 -33 34 C-32.67 33.01 -32.34 32.02 -32 31 C-31.01 31 -30.02 31 -29 31 C-28.67 30.01 -28.34 29.02 -28 28 C-27.34 28 -26.68 28 -26 28 C-25.67 27.01 -25.34 26.02 -25 25 C-23.15234375 23.46484375 -23.15234375 23.46484375 -20.9375 21.9375 C-18.75957185 20.47752704 -18.75957185 20.47752704 -17 19 C-17 18.34 -17 17.68 -17 17 C-16.01 17 -15.02 17 -14 17 C-13.67 16.01 -13.34 15.02 -13 14 C-12.34 13.01 -11.68 12.02 -11 11 C-10.01 11 -9.02 11 -8 11 C-7.67 10.01 -7.34 9.02 -7 8 C-6.34 7.67 -5.68 7.34 -5 7 C-3.86649466 4.98330173 -3.86649466 4.98330173 -3 3 C-2.34 3 -1.68 3 -1 3 C-0.67 2.01 -0.34 1.02 0 0 Z " fill="#06065E" transform="translate(204,216)"/>
<path d="M0 0 C2.1484375 0.0546875 2.1484375 0.0546875 4.0625 0.4375 C6.125 2.625 6.125 2.625 7.0625 5.4375 C6.9268141 8.28690381 6.43177163 9.87387488 4.875 12.25 C2.17325568 14.02010835 0.21576426 13.83165803 -2.9375 13.4375 C-4.8125 12.4375 -4.8125 12.4375 -5.9375 10.4375 C-6.29845911 7.63576973 -6.16466238 5.29974598 -5.9375 2.4375 C-3.9375 0.4375 -3.9375 0.4375 0 0 Z " fill="#530944" transform="translate(160.9375,157.5625)"/>
<path d="M0 0 C2.97542867 2.86868684 5.56401441 5.88360495 8.125 9.125 C12.73279551 14.82149262 17.72278406 19.9210928 23 25 C27.32504836 23.34136495 30.09418825 20.128959 33.25 16.875 C33.80429688 16.31167969 34.35859375 15.74835938 34.9296875 15.16796875 C36.29104485 13.78313972 37.64614859 12.39216796 39 11 C39 15.0800713 37.38261545 16.03536962 34.62304688 18.8359375 C34.02556641 19.42632812 33.42808594 20.01671875 32.8125 20.625 C32.23435547 21.223125 31.65621094 21.82125 31.06054688 22.4375 C27.8916924 25.60277385 25.69909285 27.76991259 21 28 C21 27.34 21 26.68 21 26 C20.2575 25.731875 19.515 25.46375 18.75 25.1875 C14.43166808 23.32276576 11.0438325 20.58737402 8 17 C8 15.68 8 14.36 8 13 C7.34 13 6.68 13 6 13 C6 11.68 6 10.36 6 9 C5.38125 8.731875 4.7625 8.46375 4.125 8.1875 C2 7 2 7 0 4 C0 2.68 0 1.36 0 0 Z " fill="#090963" transform="translate(137,200)"/>
<path d="M0 0 C10.23 0 20.46 0 31 0 C31.33 0.66 31.66 1.32 32 2 C23.42 2 14.84 2 6 2 C6.66 4.31 7.32 6.62 8 9 C8.66666667 11.33333333 9.33333333 13.66666667 10 16 C10.66 16 11.32 16 12 16 C12.33 17.65 12.66 19.3 13 21 C9.38524079 17.69199788 6.86298438 14.03571491 4.25 9.9375 C3.83878906 9.31294922 3.42757812 8.68839844 3.00390625 8.04492188 C0 3.36940667 0 3.36940667 0 0 Z " fill="#0F1052" transform="translate(105,198)"/>
<path d="M0 0 C3.63 0.66 7.26 1.32 11 2 C10.25 12.625 10.25 12.625 8 16 C7.59137154 18.67878658 7.25873324 21.30725774 7 24 C6.27027027 31.59459459 6.27027027 31.59459459 4 35 C3.34 35 2.68 35 2 35 C1.3125 32.75 1.3125 32.75 1 30 C1.46277344 29.39800781 1.92554688 28.79601562 2.40234375 28.17578125 C7.418278 21.3447901 6.15470941 10.92692402 5 3 C3.35 2.67 1.7 2.34 0 2 C0 1.34 0 0.68 0 0 Z " fill="#02027B" transform="translate(240,95)"/>
<path d="M0 0 C0.5775 0.350625 1.155 0.70125 1.75 1.0625 C4.41409176 2.17253823 5.32001932 1.8645099 8 1 C11.34765575 1 14.53091516 1.43167355 17.84375 1.87890625 C20.18474685 2.14337547 20.18474685 2.14337547 23 1 C25.232269 1.08617726 27.46238486 1.23922241 29.6875 1.4375 C30.86699219 1.53933594 32.04648438 1.64117187 33.26171875 1.74609375 C34.16535156 1.82988281 35.06898438 1.91367188 36 2 C36 2.33 36 2.66 36 3 C34.63065308 3.12846313 34.63065308 3.12846313 33.23364258 3.25952148 C29.83223519 3.57987025 26.43106609 3.90255605 23.0300293 4.22680664 C21.56071646 4.36640996 20.09131591 4.50509343 18.62182617 4.64282227 C16.50415446 4.84146604 14.38682492 5.04346491 12.26953125 5.24609375 C10.99698486 5.36654053 9.72443848 5.4869873 8.41333008 5.61108398 C5.55319929 5.93696828 2.81436225 6.41626202 0 7 C-1.76977761 7.06459042 -3.54170152 7.08611065 -5.3125 7.0625 C-6.19550781 7.05347656 -7.07851562 7.04445313 -7.98828125 7.03515625 C-8.65214844 7.02355469 -9.31601563 7.01195313 -10 7 C-9.67 6.34 -9.34 5.68 -9 5 C-7.865625 4.87625 -6.73125 4.7525 -5.5625 4.625 C-3.7990625 4.315625 -3.7990625 4.315625 -2 4 C-0.48705712 2.06402968 -0.48705712 2.06402968 0 0 Z " fill="#03027B" transform="translate(122,104)"/>
<path d="M0 0 C0.33 0.66 0.66 1.32 1 2 C2.64363134 2.72159424 4.31050386 3.39351421 6 4 C5.9175 4.78375 5.835 5.5675 5.75 6.375 C6.2227557 13.22995767 9.39858165 19.23773065 13 25 C13 25.66 13 26.32 13 27 C24.88 27 36.76 27 49 27 C49 27.33 49 27.66 49 28 C36.79 28 24.58 28 12 28 C11.67 26.68 11.34 25.36 11 24 C10.01 23.67 9.02 23.34 8 23 C6.92504883 21.09814453 6.92504883 21.09814453 5.95703125 18.6328125 C5.60576172 17.74722656 5.25449219 16.86164063 4.89257812 15.94921875 C4.53615234 15.01722656 4.17972656 14.08523437 3.8125 13.125 C3.44447266 12.20074219 3.07644531 11.27648437 2.69726562 10.32421875 C0 3.42842648 0 3.42842648 0 0 Z " fill="#090A69" transform="translate(82,150)"/>
<path d="M0 0 C0.66 0 1.32 0 2 0 C1.32829194 3.8063457 0.27253436 7.35206816 -1 11 C-1.66 11 -2.32 11 -3 11 C-3 11.66 -3 12.32 -3 13 C-3.99 13.33 -4.98 13.66 -6 14 C-7.3715383 15.95626937 -8.47040373 17.99733483 -9.62109375 20.08984375 C-11.83272903 23.15355381 -14.49523612 23.83174537 -18 25 C-18.33 25.99 -18.66 26.98 -19 28 C-19.99 28.66 -20.98 29.32 -22 30 C-22.33 30.99 -22.66 31.98 -23 33 C-25.33116317 34.60769874 -26.42816426 35.09530596 -29.25 34.625 C-29.8275 34.41875 -30.405 34.2125 -31 34 C-30.28972656 33.61714844 -29.57945312 33.23429687 -28.84765625 32.83984375 C-25.63165728 30.76201725 -23.07949296 28.29976594 -20.4375 25.5625 C-19.96892578 25.08490234 -19.50035156 24.60730469 -19.01757812 24.11523438 C-16.92130943 21.97791986 -14.83958784 19.82996877 -12.78515625 17.65234375 C-11 16 -11 16 -9 16 C-8.731875 15.401875 -8.46375 14.80375 -8.1875 14.1875 C-7 12 -7 12 -5.5 10.625 C-3.40980621 8.3606234 -2.8445618 5.92348316 -2 3 C-1.34 3 -0.68 3 0 3 C0 2.01 0 1.02 0 0 Z " fill="#05047D" transform="translate(191,193)"/>
<path d="M0 0 C1.24274346 3.72823037 0.61525146 4.48902517 -0.9921875 7.98046875 C-1.67317505 9.46933594 -1.67317505 9.46933594 -2.36791992 10.98828125 C-2.86525635 12.04402344 -3.36259277 13.09976563 -3.875 14.1875 C-4.37298096 15.26 -4.87096191 16.3325 -5.3840332 17.4375 C-9.50890678 26.20851878 -14.04199004 34.67544007 -19 43 C-19.495 41.515 -19.495 41.515 -20 40 C-19.03018744 38.31558871 -18.02062519 36.65411668 -17 35 C-15.93716984 32.52566418 -14.9611105 30.0250839 -13.984375 27.515625 C-12.72985297 24.30962426 -11.37259039 21.15695791 -10 18 C-9.34 18 -8.68 18 -8 18 C-7.8453125 17.2265625 -7.8453125 17.2265625 -7.6875 16.4375 C-6.75736134 13.13973565 -5.38604488 10.13366668 -4 7 C-3.34 7 -2.68 7 -2 7 C-2 5.35 -2 3.7 -2 2 C-1.34 2 -0.68 2 0 2 C0 1.34 0 0.68 0 0 Z " fill="#090758" transform="translate(236,159)"/>
<path d="M0 0 C0.66 0 1.32 0 2 0 C1.4726598 7.85591753 0.26792746 15.38061829 -1.4375 23.0625 C-1.65470703 24.09310547 -1.87191406 25.12371094 -2.09570312 26.18554688 C-2.31033203 27.16716797 -2.52496094 28.14878906 -2.74609375 29.16015625 C-2.93872803 30.04324463 -3.1313623 30.92633301 -3.32983398 31.83618164 C-4 34 -4 34 -6 36 C-8.125 35.625 -8.125 35.625 -10 35 C-9.2884375 34.319375 -9.2884375 34.319375 -8.5625 33.625 C-4.97449325 29.89347298 -5.33704611 24.76260134 -4.83789062 19.85351562 C-4.42637067 16.20336708 -4.07274407 14.1091161 -2 11 C-1.55888435 9.11845117 -1.1890733 7.21937362 -0.875 5.3125 C-0.70742187 4.31863281 -0.53984375 3.32476562 -0.3671875 2.30078125 C-0.24601563 1.54152344 -0.12484375 0.78226562 0 0 Z " fill="#08075B" transform="translate(251,97)"/>
<path d="M0 0 C2.97 0.495 2.97 0.495 6 1 C6 1.66 6 2.32 6 3 C14.415 2.505 14.415 2.505 23 2 C23.33 2.99 23.66 3.98 24 5 C18.12116651 7.61281488 12.29268272 7.18328202 6 7 C6 6.01 6 5.02 6 4 C4.35 3.67 2.7 3.34 1 3 C0.67 2.01 0.34 1.02 0 0 Z " fill="#D5161E" transform="translate(147,182)"/>
<path d="M0 0 C0.94439174 2.83317523 1.05549194 4.28900233 0.9375 7.1875 C0.88336413 10.49520187 1.19929514 13.30614203 2.0625 16.5 C2.371875 17.655 2.68125 18.81 3 20 C2 21 2 21 -1.87719727 21.11352539 C-3.60694167 21.11336621 -5.33669081 21.10766849 -7.06640625 21.09765625 C-7.97502914 21.0962413 -8.88365204 21.09482635 -9.81980896 21.09336853 C-12.73407221 21.08775193 -15.64825981 21.07519665 -18.5625 21.0625 C-20.53320202 21.05748714 -22.50390524 21.05292386 -24.47460938 21.04882812 C-29.31643559 21.03777711 -34.15820495 21.02050138 -39 21 C-39.66 19.35 -40.32 17.7 -41 16 C-40.34 16 -39.68 16 -39 16 C-38.67 17.32 -38.34 18.64 -38 20 C-25.79 19.67 -13.58 19.34 -1 19 C-1 13.06 -1 7.12 -1 1 C-0.67 0.67 -0.34 0.34 0 0 Z " fill="#120F4B" transform="translate(132,158)"/>
<path d="M0 0 C0 2 0 4 0 6 C0.99 6 1.98 6 3 6 C2.34 7.65 1.68 9.3 1 11 C0.34 10.01 -0.32 9.02 -1 8 C-4.14719239 9.61436414 -4.14719239 9.61436414 -4.52416992 12.06298828 C-4.59224854 12.89040527 -4.66032715 13.71782227 -4.73046875 14.5703125 C-4.81103516 15.46621094 -4.89160156 16.36210937 -4.97460938 17.28515625 C-5.04486328 18.22230469 -5.11511719 19.15945312 -5.1875 20.125 C-5.26935547 21.06988281 -5.35121094 22.01476562 -5.43554688 22.98828125 C-5.63615421 25.32476674 -5.8237477 27.66157176 -6 30 C-9.41436724 24.87844914 -8.63632229 18.96870312 -8 13 C-6.29000942 7.88318203 -3.97615146 3.67298449 0 0 Z " fill="#A81C25" transform="translate(144,145)"/>
<path d="M0 0 C0.92901123 -0.00451172 1.85802246 -0.00902344 2.81518555 -0.01367188 C3.68570557 -0.01173828 4.55622559 -0.00980469 5.453125 -0.0078125 C6.62343262 -0.00612061 6.62343262 -0.00612061 7.81738281 -0.00439453 C9.75 0.125 9.75 0.125 11.75 1.125 C13.62056791 1.3525015 15.49685958 1.53462811 17.375 1.6875 C18.37789062 1.77128906 19.38078125 1.85507813 20.4140625 1.94140625 C21.18492187 2.00199219 21.95578125 2.06257813 22.75 2.125 C22.75 2.455 22.75 2.785 22.75 3.125 C12.11297381 3.20181704 1.50524404 2.96236025 -9.125 2.625 C-10.69921276 2.57662761 -12.2734315 2.52844948 -13.84765625 2.48046875 C-17.6485099 2.36420939 -21.44927387 2.24535313 -25.25 2.125 C-25.25 1.795 -25.25 1.465 -25.25 1.125 C-16.82262742 0.33183552 -8.46071974 0.01738058 0 0 Z " fill="#0D0C6F" transform="translate(169.25,105.875)"/>
<path d="M0 0 C16.83 0 33.66 0 51 0 C50.67 2.31 50.34 4.62 50 7 C49.67 7 49.34 7 49 7 C49 5.02 49 3.04 49 1 C33.82 1.33 18.64 1.66 3 2 C2.67 3.65 2.34 5.3 2 7 C0 4 0 4 0 0 Z " fill="#19165E" transform="translate(188,152)"/>
<path d="M0 0 C5.61 0 11.22 0 17 0 C17 0.66 17 1.32 17 2 C17.78375 2.268125 18.5675 2.53625 19.375 2.8125 C22 4 22 4 24 7 C22.35 7 20.7 7 19 7 C18.67 6.34 18.34 5.68 18 5 C15.09740189 3.6250851 13.23861295 3 10 3 C9.67 3.66 9.34 4.32 9 5 C8.01 4.34 7.02 3.68 6 3 C3.66800612 2.92094936 1.33167378 2.91201231 -1 3 C-0.67 2.01 -0.34 1.02 0 0 Z " fill="#DB181D" transform="translate(155,142)"/>
<path d="M0 0 C1.65 0 3.3 0 5 0 C6.4783226 2.95664519 6.06032783 5.74229737 6 9 C3.69 9.33 1.38 9.66 -1 10 C-2.15837626 5.94568308 -1.83691257 3.78187881 0 0 Z " fill="#10016B" transform="translate(160,160)"/>
<path d="M0 0 C3.42298577 1.14099526 4.14758766 2.00085621 6 5 C6 5.99 6 6.98 6 8 C6.598125 8.061875 7.19625 8.12375 7.8125 8.1875 C10 9 10 9 11.8125 11.25 C13.17213761 14.39863447 13.0111514 15.78270009 12 19 C7.7962882 15.25074353 5.86395622 12.19945681 4 7 C4 6.34 4 5.68 4 5 C3.34 5 2.68 5 2 5 C1.34 3.35 0.68 1.7 0 0 Z " fill="#05046A" transform="translate(113,209)"/>
<path d="M0 0 C2.40074392 3.60111588 2.33244948 6.27603771 2.3125 10.4375 C2.32925781 11.75621094 2.34601563 13.07492188 2.36328125 14.43359375 C1.99440368 18.05494026 1.60775346 19.51914452 -1 22 C-1.66 22 -2.32 22 -3 22 C-2.75443359 20.75863281 -2.75443359 20.75863281 -2.50390625 19.4921875 C-1.9535453 15.67805811 -1.88910945 11.96646499 -1.9375 8.125 C-1.94201172 7.43664062 -1.94652344 6.74828125 -1.95117188 6.0390625 C-1.96283664 4.35933665 -1.98076729 2.67965625 -2 1 C-1.34 0.67 -0.68 0.34 0 0 Z " fill="#CF171E" transform="translate(182,155)"/>
<path d="M0 0 C3.84160316 5.76240474 4.23538321 11.29157865 4 18 C3.34 18 2.68 18 2 18 C-2.17647059 5.47058824 -2.17647059 5.47058824 -1 1 C-0.67 0.67 -0.34 0.34 0 0 Z " fill="#070769" transform="translate(99,116)"/>
<path d="M0 0 C1.32 0.33 2.64 0.66 4 1 C3 4 3 4 1 5 C0.52402634 7.70599842 0.15906371 10.33595404 -0.125 13.0625 C-0.21136719 13.82111328 -0.29773438 14.57972656 -0.38671875 15.36132812 C-0.59939517 17.23996986 -0.80075459 19.11988636 -1 21 C-1.66 21 -2.32 21 -3 21 C-3.41860465 6.8372093 -3.41860465 6.8372093 0 0 Z " fill="#D2161C" transform="translate(141,152)"/>
<path d="M0 0 C0.680625 0.07863281 1.36125 0.15726563 2.0625 0.23828125 C4 0.6875 4 0.6875 7 2.6875 C7.82471491 6.13630782 8 9.12940751 8 12.6875 C7.34 12.6875 6.68 12.6875 6 12.6875 C6 10.0475 6 7.4075 6 4.6875 C3.00519083 3.8151588 0.36424089 3.57920234 -2.75 3.625 C-3.94882813 3.63853516 -3.94882813 3.63853516 -5.171875 3.65234375 C-6.07679688 3.66974609 -6.07679688 3.66974609 -7 3.6875 C-7 2.6975 -7 1.7075 -7 0.6875 C-4.09583903 -0.28055366 -2.92345144 -0.37096827 0 0 Z " fill="#DB192C" transform="translate(163,155.3125)"/>
<path d="M0 0 C0.99 0 1.98 0 3 0 C3 0.66 3 1.32 3 2 C4.07121094 2.19335938 5.14242187 2.38671875 6.24609375 2.5859375 C7.64331489 2.84850255 9.04044578 3.11154825 10.4375 3.375 C11.14455078 3.50132813 11.85160156 3.62765625 12.58007812 3.7578125 C14.40052 4.10622243 16.20271648 4.547043 18 5 C18.33 5.66 18.66 6.32 19 7 C17.71222656 6.85691406 16.42445313 6.71382813 15.09765625 6.56640625 C14.27539551 6.47504395 13.45313477 6.38368164 12.60595703 6.28955078 C11.74599121 6.19399902 10.88602539 6.09844727 10 6 C8.79706299 5.86634033 8.79706299 5.86634033 7.56982422 5.72998047 C5.19238281 5.46582031 2.81494141 5.20166016 0.4375 4.9375 C-0.38041016 4.84662109 -1.19832031 4.75574219 -2.04101562 4.66210938 C-4.02734375 4.44140625 -6.01367188 4.22070312 -8 4 C-8 3.67 -8 3.34 -8 3 C-6.865625 2.87625 -5.73125 2.7525 -4.5625 2.625 C-3.386875 2.41875 -2.21125 2.2125 -1 2 C-0.67 1.34 -0.34 0.68 0 0 Z " fill="#02027A" transform="translate(189,104)"/>
<path d="M0 0 C1.12591553 0.00523682 2.25183105 0.01047363 3.41186523 0.01586914 C4.62680664 0.0190918 5.84174805 0.02231445 7.09350586 0.02563477 C8.37290039 0.03401367 9.65229492 0.04239258 10.97045898 0.05102539 C12.2537207 0.05553711 13.53698242 0.06004883 14.85913086 0.06469727 C18.04211921 0.07652994 21.22501661 0.09301471 24.40795898 0.11352539 C24.40795898 0.44352539 24.40795898 0.77352539 24.40795898 1.11352539 C16.48795898 1.11352539 8.56795898 1.11352539 0.40795898 1.11352539 C0.73795898 2.76352539 1.06795898 4.41352539 1.40795898 6.11352539 C0.41795898 6.11352539 -0.57204102 6.11352539 -1.59204102 6.11352539 C-2.25204102 4.46352539 -2.91204102 2.81352539 -3.59204102 1.11352539 C-2.59204102 0.11352539 -2.59204102 0.11352539 0 0 Z " fill="#0B0B76" transform="translate(110.592041015625,198.886474609375)"/>
<path d="M0 0 C3 3.75 3 3.75 3 6 C3.66 6 4.32 6 5 6 C6.20568053 10.67201205 6.09382426 15.21496292 6 20 C3.89736898 16.84605348 2.98223382 14.17536296 1.875 10.5625 C1.52179688 9.42941406 1.16859375 8.29632813 0.8046875 7.12890625 C0 4 0 4 0 0 Z " fill="#090B61" transform="translate(76,130)"/>
<path d="M0 0 C0.66 0 1.32 0 2 0 C1.90460938 0.64066406 1.80921875 1.28132813 1.7109375 1.94140625 C0.98587367 7.59859035 1.0194911 11.64097591 3 17 C2.34 17.66 1.68 18.32 1 19 C-1.06861928 13.56987439 -2.59048807 8.90488073 -2 3 C-1.34 2.01 -0.68 1.02 0 0 Z " fill="#010182" transform="translate(74,97)"/>
<path d="M0 0 C4.2585854 6.38787809 3.10949904 14.59056503 3 22 C1.30566082 18.9530371 0.50532888 16.17178534 -0.125 12.75 C-0.29257813 11.85796875 -0.46015625 10.9659375 -0.6328125 10.046875 C-0.81457031 9.03367187 -0.81457031 9.03367187 -1 8 C-0.34 8 0.32 8 1 8 C0.67 5.36 0.34 2.72 0 0 Z " fill="#060861" transform="translate(73,108)"/>
<path d="M0 0 C3.72853852 3.40165295 4.73236449 7.07239527 5.19140625 12.09375 C5.30082802 16.00375442 4.88912985 18.6190573 3 22 C2.95101562 21.16597656 2.90203125 20.33195312 2.8515625 19.47265625 C2.40682732 12.77862499 1.6531796 6.50250641 0 0 Z " fill="#8F1C2C" transform="translate(182,151)"/>
<path d="M0 0 C1.40258549 3.82181014 0.61386752 6.7351345 -0.3125 10.625 C-0.70888672 12.34589844 -0.70888672 12.34589844 -1.11328125 14.1015625 C-2 17 -2 17 -4 19 C-6.125 18.625 -6.125 18.625 -8 18 C-7.53722656 17.61714844 -7.07445312 17.23429687 -6.59765625 16.83984375 C-4.57283728 14.50808401 -4.14799573 12.55470202 -3.4375 9.5625 C-2.60612787 6.11019198 -1.71686263 3.11687936 0 0 Z " fill="#0A0A47" transform="translate(249,114)"/>
<path d="M0 0 C8.58 0 17.16 0 26 0 C25.34 1.98 24.68 3.96 24 6 C23.34 4.68 22.68 3.36 22 2 C14.74 1.67 7.48 1.34 0 1 C0 0.67 0 0.34 0 0 Z " fill="#151369" transform="translate(109,152)"/>
<path d="M0 0 C1.98 0 3.96 0 6 0 C6 0.66 6 1.32 6 2 C6.78375 2.268125 7.5675 2.53625 8.375 2.8125 C11 4 11 4 13 7 C11.35 7 9.7 7 8 7 C7.67 6.34 7.34 5.68 7 5 C4.97536745 4.34786708 4.97536745 4.34786708 3 4 C3 3.01 3 2.02 3 1 C2.01 0.67 1.02 0.34 0 0 Z " fill="#D1101B" transform="translate(166,142)"/>
<path d="M0 0 C0.98484375 0.00902344 1.9696875 0.01804687 2.984375 0.02734375 C4.10585937 0.04474609 4.10585937 0.04474609 5.25 0.0625 C5.25 0.3925 5.25 0.7225 5.25 1.0625 C4.40695313 1.14886719 3.56390625 1.23523438 2.6953125 1.32421875 C1.59960938 1.46472656 0.50390625 1.60523437 -0.625 1.75 C-1.71554688 1.87761719 -2.80609375 2.00523438 -3.9296875 2.13671875 C-6.9802512 2.77862757 -6.9802512 2.77862757 -8.1328125 5.64453125 C-8.33648437 6.44246094 -8.54015625 7.24039063 -8.75 8.0625 C-9.41 6.7425 -10.07 5.4225 -10.75 4.0625 C-10.09 4.0625 -9.43 4.0625 -8.75 4.0625 C-9.08 3.0725 -9.41 2.0825 -9.75 1.0625 C-6.43929162 0.06140485 -3.44915231 -0.04106134 0 0 Z " fill="#02037C" transform="translate(106.75,110.9375)"/>
<path d="M0 0 C0.66 0.33 1.32 0.66 2 1 C0.71389867 2.9829888 -0.57849139 4.96133376 -1.875 6.9375 C-2.59429687 8.03964844 -3.31359375 9.14179688 -4.0546875 10.27734375 C-6 13 -6 13 -8 14 C-7.56089921 9.16989127 -6.57142007 7.22579877 -3 4 C-3 3.34 -3 2.68 -3 2 C-2.01 2 -1.02 2 0 2 C0 1.34 0 0.68 0 0 Z " fill="#070756" transform="translate(214,202)"/>
<path d="M0 0 C0.66 0 1.32 0 2 0 C0.50923566 3.2826932 -1.38620321 5.93077441 -3.625 8.75 C-4.57246094 9.94882813 -4.57246094 9.94882813 -5.5390625 11.171875 C-6.02117187 11.77515625 -6.50328125 12.3784375 -7 13 C-7.33 11.68 -7.66 10.36 -8 9 C-7.01 8.34 -6.02 7.68 -5 7 C-3.80767387 4.94996045 -3.80767387 4.94996045 -3 3 C-2.34 3 -1.68 3 -1 3 C-0.67 2.01 -0.34 1.02 0 0 Z " fill="#04054E" transform="translate(204,216)"/>
<path d="M0 0 C4.65987191 3.0657052 5.85485202 5.58657319 7 11 C7.66 11 8.32 11 9 11 C9.33 12.65 9.66 14.3 10 16 C5.86876658 12.34544736 2.65954719 7.81378042 0 3 C0 2.01 0 1.02 0 0 Z " fill="#090958" transform="translate(108,203)"/>
<path d="M0 0 C0.66 0.33 1.32 0.66 2 1 C0.9375 3.5 0.9375 3.5 -1 6 C-5.25281824 6.54126778 -8.35713096 6.33143618 -12 4 C-11.67 3.01 -11.34 2.02 -11 1 C-9.515 1.99 -9.515 1.99 -8 3 C-5.5 3.41666667 -5.5 3.41666667 -3 3 C-1.18523997 1.60414215 -1.18523997 1.60414215 0 0 Z " fill="#D91B32" transform="translate(167,169)"/>
<path d="M0 0 C1.28401532 2.31122757 1.99670993 3.97236343 2.3125 6.625 C2.539375 7.40875 2.76625 8.1925 3 9 C5.47636012 10.37466625 5.47636012 10.37466625 8 11 C6.68 11.33 5.36 11.66 4 12 C3.731875 11.360625 3.46375 10.72125 3.1875 10.0625 C2.11332248 7.66868314 2.11332248 7.66868314 -1 7 C-0.67 4.69 -0.34 2.38 0 0 Z " fill="#D21623" transform="translate(152,164)"/>
<path d="M0 0 C1.5625 1.25 1.5625 1.25 3 3 C3 5.0625 3 5.0625 2 7 C-0.5625 8.25 -0.5625 8.25 -3 9 C-3.36923077 3.46153846 -3.36923077 3.46153846 -1.5 1.125 C-1.005 0.75375 -0.51 0.3825 0 0 Z " fill="#C3171C" transform="translate(153,155)"/>
<path d="M0 0 C0.91419123 3.65676494 1.00001038 5.50608696 0.5625 9.125 C0.14565931 12.55476745 0.14565931 12.55476745 0 16 C0.66 16.33 1.32 16.66 2 17 C0.02 16.67 -1.96 16.34 -4 16 C-2.68 10.72 -1.36 5.44 0 0 Z " fill="#0C0D42" transform="translate(222,116)"/>
<path d="M0 0 C0.66 0 1.32 0 2 0 C1.9278125 0.81984375 1.855625 1.6396875 1.78125 2.484375 C1.6884375 3.56203125 1.595625 4.6396875 1.5 5.75 C1.4071875 6.81734375 1.314375 7.8846875 1.21875 8.984375 C1.04947717 11.3179218 1 13.66032182 1 16 C0.34 16 -0.32 16 -1 16 C-2.18758632 10.85379262 -1.97652537 6.15388392 -1 1 C-0.67 0.67 -0.34 0.34 0 0 Z " fill="#A81A1E" transform="translate(142,156)"/>
<path d="M0 0 C0.99 0 1.98 0 3 0 C3.33 3.96 3.66 7.92 4 12 C0.41540069 7.22053425 -0.12621479 5.80588017 0 0 Z " fill="#020377" transform="translate(76,124)"/>
<path d="M0 0 C1.72985242 0.11512153 3.45888751 0.24255677 5.1875 0.375 C6.15042969 0.44460937 7.11335937 0.51421875 8.10546875 0.5859375 C11.01508938 1.00215853 13.32890774 1.79874096 16 3 C15.67 3.66 15.34 4.32 15 5 C13.35 4.67 11.7 4.34 10 4 C10 3.34 10 2.68 10 2 C8.906875 2.226875 7.81375 2.45375 6.6875 2.6875 C4.8621875 2.8421875 4.8621875 2.8421875 3 3 C1.26953125 1.51953125 1.26953125 1.51953125 0 0 Z " fill="#05047C" transform="translate(224,91)"/>
<path d="M0 0 C3.4375 0.8125 3.4375 0.8125 7 2 C7.33 2.99 7.66 3.98 8 5 C11.51190809 6.22969878 11.51190809 6.22969878 15 7 C15 7.33 15 7.66 15 8 C8.55510814 7.73146284 4.73633646 5.33036476 0 1 C0 0.67 0 0.34 0 0 Z " fill="#0A0956" transform="translate(148,250)"/>
<path d="M0 0 C1.134375 0.020625 2.26875 0.04125 3.4375 0.0625 C3.4375 1.3825 3.4375 2.7025 3.4375 4.0625 C1.1275 4.0625 -1.1825 4.0625 -3.5625 4.0625 C-3.8925 3.0725 -4.2225 2.0825 -4.5625 1.0625 C-3.5625 0.0625 -3.5625 0.0625 0 0 Z " fill="#02017E" transform="translate(133.5625,199.9375)"/>
<path d="M0 0 C0.99 0.33 1.98 0.66 3 1 C3.08097324 3.27024968 3.13917704 5.54132075 3.1875 7.8125 C3.22230469 9.07707031 3.25710937 10.34164062 3.29296875 11.64453125 C3 15 3 15 1.48828125 16.94921875 C0.99714844 17.29597656 0.50601563 17.64273438 0 18 C0.165 17.34 0.33 16.68 0.5 16 C1.4032273 10.58063618 1.3371279 5.34851158 0 0 Z " fill="#A82628" transform="translate(178,156)"/>
<path d="M0 0 C0.66 0.33 1.32 0.66 2 1 C-1.49359465 4.59634744 -5.11098131 7.83451967 -9 11 C-9 10.01 -9 9.02 -9 8 C-8.34 8 -7.68 8 -7 8 C-6.67 7.01 -6.34 6.02 -6 5 C-4.12382302 3.15500602 -2.07262391 1.6316401 0 0 Z " fill="#040475" transform="translate(185,236)"/>
<path d="M0 0 C0 0.66 0 1.32 0 2 C-3.96 2.66 -7.92 3.32 -12 4 C-12 3.34 -12 2.68 -12 2 C-7.82262526 0.40861915 -4.46839215 -0.21278058 0 0 Z " fill="#090B61" transform="translate(112,112)"/>
<path d="M0 0 C5.78461538 4.43076923 5.78461538 4.43076923 6.875 7.3125 C6.936875 8.1478125 6.936875 8.1478125 7 9 C6.34 9 5.68 9 5 9 C5 8.34 5 7.68 5 7 C2.525 6.01 2.525 6.01 0 5 C0 3.35 0 1.7 0 0 Z " fill="#080763" transform="translate(153,219)"/>
<path d="M0 0 C0 0.33 0 0.66 0 1 C-4.64987264 2.4234304 -9.12507777 3.61765316 -14 4 C-14.66 3.34 -15.32 2.68 -16 2 C-10.42932723 0.40837921 -5.78898419 -0.20674944 0 0 Z " fill="#090778" transform="translate(112,88)"/>
<path d="M0 0 C2.97 0.495 2.97 0.495 6 1 C5.67 2.32 5.34 3.64 5 5 C3.35 4.67 1.7 4.34 0 4 C0 2.68 0 1.36 0 0 Z " fill="#D0181C" transform="translate(171,180)"/>
<path d="M0 0 C3.42298577 1.14099526 4.14758766 2.00085621 6 5 C6 5.99 6 6.98 6 8 C6.99 8.33 7.98 8.66 9 9 C7.68 9 6.36 9 5 9 C4.67 7.68 4.34 6.36 4 5 C3.34 5 2.68 5 2 5 C1.34 3.35 0.68 1.7 0 0 Z " fill="#04047B" transform="translate(113,209)"/>
<path d="M0 0 C2.875 0.1875 2.875 0.1875 6 1 C7.375 3.5625 7.375 3.5625 8 6 C7.34 6 6.68 6 6 6 C6 5.34 6 4.68 6 4 C4.35 3.67 2.7 3.34 1 3 C0.67 2.01 0.34 1.02 0 0 Z " fill="#DE1324" transform="translate(147,182)"/>
<path d="M0 0 C2.29013653 3.4352048 2.17842973 4.985331 2 9 C1.34 9 0.68 9 0 9 C-0.66 6.36 -1.32 3.72 -2 1 C-1.34 0.67 -0.68 0.34 0 0 Z " fill="#DB1922" transform="translate(182,155)"/>
<path d="M0 0 C0.8125 1.625 0.8125 1.625 1 4 C-0.46818136 6.24609835 -2.15852858 8.02378677 -4 10 C-4.33 9.01 -4.66 8.02 -5 7 C-4.34 6.67 -3.68 6.34 -3 6 C-2.29788106 4.34795544 -1.63028587 2.68076231 -1 1 C-0.67 0.67 -0.34 0.34 0 0 Z " fill="#050382" transform="translate(198,183)"/>
<path d="M0 0 C-2.61973266 2.61973266 -4.35166422 2.70813314 -8 3 C-10.375 2.0625 -10.375 2.0625 -12 1 C-8.0186217 -0.3271261 -4.14954773 -0.06915913 0 0 Z " fill="#A62329" transform="translate(168,175)"/>
<path d="M0 0 C0.99 0 1.98 0 3 0 C3.99 2.31 4.98 4.62 6 7 C5.34 7.66 4.68 8.32 4 9 C2.68 6.03 1.36 3.06 0 0 Z " fill="#0F0D5E" transform="translate(87,165)"/>
<path d="M0 0 C2.875 -0.125 2.875 -0.125 6 0 C6.66 0.66 7.32 1.32 8 2 C3.545 2.495 3.545 2.495 -1 3 C-0.67 2.01 -0.34 1.02 0 0 Z " fill="#B81D26" transform="translate(155,144)"/>
<path d="M0 0 C0.66 0.33 1.32 0.66 2 1 C-1.625 5.875 -1.625 5.875 -5 7 C-4.60196439 4.11424181 -4.20990931 3.17810487 -1.9375 1.25 C-1.298125 0.8375 -0.65875 0.425 0 0 Z " fill="#040378" transform="translate(205,213)"/>
<path d="M0 0 C2.64 0.66 5.28 1.32 8 2 C8 2.99 8 3.98 8 5 C2.25 3.375 2.25 3.375 0 0 Z " fill="#B11F29" transform="translate(145,184)"/>
<path d="M0 0 C-0.3125 1.9375 -0.3125 1.9375 -1 4 C-1.99 4.33 -2.98 4.66 -4 5 C-4.66 4.67 -5.32 4.34 -6 4 C-6 3.34 -6 2.68 -6 2 C-2.25 0 -2.25 0 0 0 Z " fill="#010281" transform="translate(164,164)"/>
<path d="M0 0 C0.66 0 1.32 0 2 0 C1.21302675 3.41021743 0.12880057 6.68885166 -1 10 C-1.33 10 -1.66 10 -2 10 C-2.25 3.375 -2.25 3.375 0 0 Z " fill="#040376" transform="translate(74,97)"/>
<path d="M0 0 C0.66 0 1.32 0 2 0 C1.4409112 3.24271506 0.5867822 4.93057424 -2 7 C-2.66 7 -3.32 7 -4 7 C-2.79618552 4.50638429 -1.54571278 2.31856917 0 0 Z " fill="#01027B" transform="translate(198,220)"/>
<path d="M0 0 C2.31 0 4.62 0 7 0 C6.34 1.98 5.68 3.96 5 6 C4.731875 5.38125 4.46375 4.7625 4.1875 4.125 C3.04443152 1.7004767 3.04443152 1.7004767 0 0 Z " fill="#201755" transform="translate(128,152)"/>
<path d="M0 0 C2.475 0.495 2.475 0.495 5 1 C5.33 2.65 5.66 4.3 6 6 C3.97945196 4.35830472 1.97956942 2.69088222 0 1 C0 0.67 0 0.34 0 0 Z " fill="#B51925" transform="translate(172,149)"/>
</svg>
